<svg width="148" height="175" version="1.1" xmlns="http://www.w3.org/2000/svg" desc="Created with imagetracer.js version 1.2.6" ><path fill="rgb(0,0,0)" stroke="rgb(0,0,0)" stroke-width="1" opacity="0" d="M 0 0 L 148 0 L 148 145.5 L 147 145.5 L 144 140.5 L 142.5 133 L 140.5 134 L 142 131.5 L 140.5 130 L 136 126.5 L 134.5 124 L 132 122.5 Q 135.5 121 133 119.5 L 124.5 105 L 119 102.5 L 123 102 L 116 85 L 110 83 Q 108.9 80.3 111.5 81 L 111 79.5 L 102.5 64 L 98 61.5 Q 97.3 59.3 99.5 60 L 99 58.5 L 91.5 43 L 82 39.5 L 88 39 Q 85.2 28 78.5 20 L 67.5 19 L 66.5 20 L 57 20 L 49 35.5 L 49 38 L 56 39.5 L 54.5 41 Q 47.8 39.3 46 42.5 L 39 55.5 L 44 59.5 L 37 60 L 31 73.5 L 33.5 77 L 28 77 L 28 79.5 L 22 90.5 L 24.5 94 Q 19.1 92.1 20 95.5 L 13 107.5 L 15.5 111 Q 11 110 10 112.5 L 0.5 131 L 0 0 Z M 68 1 L 60 15 Q 58 16 61 17 Q 71 18 76 16 L 70 3 L 68 1 Z " /><path fill="rgb(0,0,0)" stroke="rgb(0,0,0)" stroke-width="1" opacity="0" d="M 0.5 135 L 31 174.5 L 0 175 L 0.5 135 Z " /><path fill="rgb(0,0,0)" stroke="rgb(0,0,0)" stroke-width="1" opacity="0" d="M 145.5 147 L 148 147.5 L 148 175 L 35 174.5 L 145.5 147 Z " /><path fill="rgb(86,135,245)" stroke="rgb(86,135,245)" stroke-width="1" opacity="0.8980392156862745" d="M 67.5 1 L 68 2.5 L 64 17 Q 60.2 18 59 15.5 L 67.5 1 Z " /><path fill="rgb(86,135,245)" stroke="rgb(86,135,245)" stroke-width="1" opacity="0.8980392156862745" d="M 57 20 L 64 22.5 L 63 23.5 L 62 38.5 L 60.5 40 L 49 38 L 49 35.5 L 57 20 Z " /><path fill="rgb(86,135,245)" stroke="rgb(86,135,245)" stroke-width="1" opacity="0.8980392156862745" d="M 47.5 41 L 58 46 L 58 52.5 L 54.5 65 L 39 55.5 L 47.5 41 Z " /><path fill="rgb(28,169,147)" stroke="rgb(28,169,147)" stroke-width="1" opacity="0.9803921568627451" d="M 90.5 43 L 93 44.5 L 100 59.5 L 96.5 61 L 94.5 61 L 86.5 61 L 85.5 62 L 77.5 62 L 76.5 63 L 55 65 L 58.5 46 L 60.5 46 L 80.5 45 L 90.5 43 Z " /><path fill="rgb(28,169,147)" stroke="rgb(28,169,147)" stroke-width="1" opacity="0.9803921568627451" d="M 37 60 L 54 70.5 L 50 89 L 31 73.5 L 37 60 Z " /><path fill="rgb(14,130,26)" stroke="rgb(14,130,26)" stroke-width="1" opacity="0.9882352941176471" d="M 39.5 60 L 45.5 60 L 54.5 66 L 61.5 64 L 63.5 65 L 69.5 63 L 71.5 64 L 78.5 62 L 80.5 63 L 86.5 61 L 89.5 62 L 95.5 60 L 96 62 L 104 65.5 L 112 80.5 L 109.5 82 L 63.5 88 L 56.5 90 L 48.5 90 L 42.5 83 L 50 89 L 54 70.5 L 40.5 62 L 39.5 60 Z " /><path fill="rgb(248,121,64)" stroke="rgb(248,121,64)" stroke-width="1" opacity="0.9764705882352941" d="M 20.5 94 L 41 116.5 L 44 120.5 L 44 123.5 L 40.5 139 L 13 106.5 L 20.5 94 Z " /><path fill="rgb(248,121,64)" stroke="rgb(248,121,64)" stroke-width="1" opacity="0.9764705882352941" d="M 35.5 104 L 37.5 107 L 35.5 104 Z " /><path fill="rgb(248,121,64)" stroke="rgb(248,121,64)" stroke-width="1" opacity="0.9764705882352941" d="M 8.5 128 L 7.5 130 L 8.5 128 Z " /><path fill="rgb(248,121,64)" stroke="rgb(248,121,64)" stroke-width="1" opacity="0.9764705882352941" d="M 14.5 132 L 13.5 134 L 14.5 132 Z " /><path fill="rgb(248,121,64)" stroke="rgb(248,121,64)" stroke-width="1" opacity="0.9764705882352941" d="M 15.5 145 L 14.5 147 L 13 146.5 L 15.5 145 Z " /><path fill="rgb(248,121,64)" stroke="rgb(248,121,64)" stroke-width="1" opacity="0.9764705882352941" d="M 30.5 161 L 33 161.5 L 30.5 162 L 30.5 161 Z " /><path fill="rgb(190,177,9)" stroke="rgb(190,177,9)" stroke-width="1" opacity="0.7098039215686275" d="M 28.5 77 L 33 80.5 L 29.5 78 L 28.5 77 Z " /><path fill="rgb(190,177,9)" stroke="rgb(190,177,9)" stroke-width="1" opacity="0.7098039215686275" d="M 113.5 85 Q 116.8 83.9 116 86.5 L 123 99.5 L 123 102 L 120 101.5 L 122 101 L 114.5 86 L 113.5 85 Z " /><path fill="rgb(190,177,9)" stroke="rgb(190,177,9)" stroke-width="1" opacity="0.7098039215686275" d="M 39.5 86 L 41.5 89 L 39.5 86 Z " /><path fill="rgb(190,177,9)" stroke="rgb(190,177,9)" stroke-width="1" opacity="0.7098039215686275" d="M 107.5 86 L 110 86.5 L 107.5 87 L 107.5 86 Z " /><path fill="rgb(190,177,9)" stroke="rgb(190,177,9)" stroke-width="1" opacity="0.7098039215686275" d="M 100.5 87 L 104 87.5 L 100.5 88 L 100.5 87 Z " /><path fill="rgb(190,177,9)" stroke="rgb(190,177,9)" stroke-width="1" opacity="0.7098039215686275" d="M 94.5 88 L 98 88.5 L 94.5 89 L 94.5 88 Z " /><path fill="rgb(190,177,9)" stroke="rgb(190,177,9)" stroke-width="1" opacity="0.7098039215686275" d="M 88.5 89 L 91 89.5 L 88.5 90 L 88.5 89 Z " /><path fill="rgb(190,177,9)" stroke="rgb(190,177,9)" stroke-width="1" opacity="0.7098039215686275" d="M 81.5 90 L 85 90.5 L 81.5 91 L 81.5 90 Z " /><path fill="rgb(190,177,9)" stroke="rgb(190,177,9)" stroke-width="1" opacity="0.7098039215686275" d="M 75.5 91 L 78 91.5 L 75.5 92 L 75.5 91 Z " /><path fill="rgb(190,177,9)" stroke="rgb(190,177,9)" stroke-width="1" opacity="0.7098039215686275" d="M 68.5 92 L 72 92.5 L 68.5 93 L 68.5 92 Z " /><path fill="rgb(190,177,9)" stroke="rgb(190,177,9)" stroke-width="1" opacity="0.7098039215686275" d="M 47.5 93 L 52 95.5 L 49.5 97 L 47.5 93 Z " /><path fill="rgb(190,177,9)" stroke="rgb(190,177,9)" stroke-width="1" opacity="0.7098039215686275" d="M 62.5 93 L 65 93.5 L 62.5 94 L 62.5 93 Z " /><path fill="rgb(190,177,9)" stroke="rgb(190,177,9)" stroke-width="1" opacity="0.7098039215686275" d="M 55.5 94 L 59 94.5 L 55.5 95 L 55.5 94 Z " /><path fill="rgb(205,192,0)" stroke="rgb(205,192,0)" stroke-width="1" opacity="0.996078431372549" d="M 110.5 86 Q 115 85 116 87.5 L 122 101 L 45.5 115 L 45 111.5 L 47 108.5 L 49 97.5 L 50.5 96 L 90.5 90 L 91.5 89 L 97.5 89 L 110.5 86 Z " /><path fill="rgb(205,192,0)" stroke="rgb(205,192,0)" stroke-width="1" opacity="0.996078431372549" d="M 27.5 95 L 28.5 97 L 27.5 95 Z " /><path fill="rgb(205,192,0)" stroke="rgb(205,192,0)" stroke-width="1" opacity="0.996078431372549" d="M 38.5 107 L 39.5 109 L 38.5 107 Z " /><path fill="rgb(37,29,50)" stroke="rgb(37,29,50)" stroke-width="1" opacity="0.9764705882352941" d="M 68.5 1 L 76 16 Q 72.2 17.8 64.5 17 L 65 15.5 L 65 11.5 L 68.5 1 Z " /><path fill="rgb(37,29,50)" stroke="rgb(37,29,50)" stroke-width="1" opacity="0.9764705882352941" d="M 67.5 19 Q 76.4 17.6 80 21.5 L 88 36.5 L 88 39 L 82 39.5 L 90 43.5 L 70.5 45 L 69.5 46 L 57.5 46 L 48 41.5 L 59.5 40 L 61 40.5 L 63 30.5 L 63 23.5 L 64 22.5 L 60 20.5 L 67.5 19 Z " /><path fill="rgb(37,29,50)" stroke="rgb(37,29,50)" stroke-width="1" opacity="0.9764705882352941" d="M 48.5 61 L 49.5 63 L 48.5 61 Z " /><path fill="rgb(37,29,50)" stroke="rgb(37,29,50)" stroke-width="1" opacity="0.9764705882352941" d="M 87.5 61 L 90 61.5 L 87.5 62 L 87.5 61 Z " /><path fill="rgb(37,29,50)" stroke="rgb(37,29,50)" stroke-width="1" opacity="0.9764705882352941" d="M 96.5 61 L 99 62.5 L 97.5 62 L 96.5 61 Z " /><path fill="rgb(247,66,71)" stroke="rgb(247,66,71)" stroke-width="1" opacity="0.9490196078431372" d="M 27.5 101 L 28.5 103 L 27.5 101 Z " /><path fill="rgb(247,66,71)" stroke="rgb(247,66,71)" stroke-width="1" opacity="0.9490196078431372" d="M 11.5 111 L 39 144.5 L 39 148.5 L 37.5 153 Q 34.6 145.4 28.5 141 L 23.5 140 Q 18.5 141.5 20 149.5 Q 22.6 156.9 28.5 161 L 32.5 162 L 35.5 160 L 35 161.5 L 31.5 175 L 0 134.5 L 0 131.5 L 11.5 111 Z M 14 124 L 4 133 L 13 147 L 16 146 L 11 136 L 18 130 L 14 124 Z " /><path fill="rgb(247,66,71)" stroke="rgb(247,66,71)" stroke-width="1" opacity="0.9490196078431372" d="M 41.5 117 L 42.5 119 L 41.5 117 Z " /><path fill="rgb(247,66,71)" stroke="rgb(247,66,71)" stroke-width="1" opacity="0.9490196078431372" d="M 135.5 129 L 138 129.5 L 135.5 130 L 135.5 129 Z " /><path fill="rgb(247,66,71)" stroke="rgb(247,66,71)" stroke-width="1" opacity="0.9490196078431372" d="M 132.5 133 L 135 133.5 L 132.5 134 L 132.5 133 Z " /><path fill="rgb(247,66,71)" stroke="rgb(247,66,71)" stroke-width="1" opacity="0.9490196078431372" d="M 143.5 139 L 142.5 141 L 143.5 139 Z " /><path fill="rgb(247,66,71)" stroke="rgb(247,66,71)" stroke-width="1" opacity="0.9490196078431372" d="M 80.5 144 L 81.5 146 L 80.5 144 Z " /><path fill="rgb(247,66,71)" stroke="rgb(247,66,71)" stroke-width="1" opacity="0.9490196078431372" d="M 26.5 147 Q 30.3 146.3 31 148.5 L 32 153.5 Q 31.3 155.8 27.5 155 Q 24.4 153.6 25 148.5 L 26.5 147 Z " /><path fill="rgb(247,66,71)" stroke="rgb(247,66,71)" stroke-width="1" opacity="0.9490196078431372" d="M 52.5 148 L 54.5 151 L 52.5 148 Z " /><path fill="rgb(247,66,71)" stroke="rgb(247,66,71)" stroke-width="1" opacity="0.9490196078431372" d="M 81.5 153 L 80.5 155 L 81.5 153 Z " /><path fill="rgb(115,42,4)" stroke="rgb(115,42,4)" stroke-width="1" opacity="0.984313725490196" d="M 30.5 77 L 36.5 78 L 48.5 90 L 56.5 90 L 63.5 88 L 109.5 82 L 114 84.5 L 112.5 86 Q 107.7 84.7 106.5 87 L 100.5 87 L 87.5 90 L 49.5 95 Q 37.9 86.9 30.5 77 Z " /><path fill="rgb(115,42,4)" stroke="rgb(115,42,4)" stroke-width="1" opacity="0.984313725490196" d="M 22 94 L 25.5 94 L 35 103.5 L 45.5 115 L 57.5 112 L 118.5 102 L 125 105.5 L 118.5 108 L 113.5 108 L 107.5 110 L 102.5 110 L 96.5 112 L 91.5 112 L 85.5 114 L 80.5 114 L 44.5 121 L 22 94 Z " /><path fill="rgb(115,42,4)" stroke="rgb(115,42,4)" stroke-width="1" opacity="0.984313725490196" d="M 12.5 111 Q 19 110 20 114.5 L 40.5 140 L 126.5 122 L 131.5 122 L 133 125 L 39 145 L 14 114.5 L 12.5 111 Z " /><path fill="rgb(215,211,177)" stroke="rgb(215,211,177)" stroke-width="1" opacity="0.9882352941176471" d="M 28 78 L 33.5 81 L 49 95.5 L 44.5 114 L 26.5 94 L 23 91.5 L 23 88.5 L 28 78 Z " /><path fill="rgb(215,211,177)" stroke="rgb(215,211,177)" stroke-width="1" opacity="0.9882352941176471" d="M 12.5 125 Q 15.8 123.9 15 126.5 L 17 130.5 L 11 135.5 L 11 137.5 L 16 144.5 L 13.5 146 L 4 132.5 L 12.5 125 Z " /><path fill="rgb(215,211,177)" stroke="rgb(215,211,177)" stroke-width="1" opacity="0.9882352941176471" d="M 138.5 129 L 142 131.5 L 135.5 134 L 131.5 133 Q 127.3 133.8 128 139.5 Q 128.8 142.8 133.5 142 L 138 140 Q 139.3 137 135.5 138 L 133 139 Q 131.3 134.5 136.5 136 L 142.5 133 L 144 138.5 Q 138.9 145.4 126.5 145 L 123 142.5 L 122 137.5 L 125.5 133 L 138.5 129 Z " /><path fill="rgb(215,211,177)" stroke="rgb(215,211,177)" stroke-width="1" opacity="0.9882352941176471" d="M 114.5 134 Q 116.8 133.3 116 135.5 L 119 147 L 112.5 148 L 104.5 144 L 105 145.5 L 106 151 L 100 152 L 97 139.5 L 104.5 138 L 111.5 143 L 112 140.5 L 111 135 L 114.5 134 Z " /><path fill="rgb(215,211,177)" stroke="rgb(215,211,177)" stroke-width="1" opacity="0.9882352941176471" d="M 24.5 140 Q 30.9 140.7 33 145.5 L 37 152.5 L 37 157.5 L 34.5 161 Q 25.9 162.1 24 156.5 L 20 149.5 L 20 144.5 L 22.5 141 L 24.5 140 Z M 28 146 L 25 147 L 24 150 L 25 153 L 30 156 Q 33 155 32 150 L 28 146 Z " /><path fill="rgb(215,211,177)" stroke="rgb(215,211,177)" stroke-width="1" opacity="0.9882352941176471" d="M 88.5 140 Q 93.3 138.3 92 142.5 L 94 153 L 88 154 L 86 141 L 88.5 140 Z " /><path fill="rgb(215,211,177)" stroke="rgb(215,211,177)" stroke-width="1" opacity="0.9882352941176471" d="M 75.5 143 Q 80.3 143.3 82 146.5 L 83 150.5 L 78.5 156 L 66.5 159 L 65 157.5 L 63 146 L 75.5 143 Z M 70 147 L 71 155 L 76 154 L 77 152 L 76 149 Q 75 146 70 147 Z " /><path fill="rgb(215,211,177)" stroke="rgb(215,211,177)" stroke-width="1" opacity="0.9882352941176471" d="M 48.5 149 L 52.5 149 L 61 157.5 L 62 159.5 L 56.5 161 L 53.5 159 L 47 162.5 Q 47.8 165.1 44.5 164 L 41.5 165 L 42 163.5 L 45 150 L 48.5 149 Z M 50 153 L 49 157 L 49 158 L 53 157 L 50 153 Z " /><path fill="rgb(202,23,4)" stroke="rgb(202,23,4)" stroke-width="1" opacity="0.9764705882352941" d="M 124.5 106 L 127 107.5 L 134 120.5 L 132.5 122 L 126.5 122 L 40.5 140 L 38.5 137 L 41 138.5 L 44 121 L 91.5 112 L 96.5 112 L 102.5 110 L 107.5 110 L 113.5 108 L 118.5 108 L 124.5 106 Z " /><path fill="rgb(202,23,4)" stroke="rgb(202,23,4)" stroke-width="1" opacity="0.9764705882352941" d="M 12.5 112 L 13.5 114 L 12.5 112 Z " /><path fill="rgb(202,23,4)" stroke="rgb(202,23,4)" stroke-width="1" opacity="0.9764705882352941" d="M 20.5 115 L 21.5 117 L 20.5 115 Z " /><path fill="rgb(202,23,4)" stroke="rgb(202,23,4)" stroke-width="1" opacity="0.9764705882352941" d="M 17.5 118 L 18.5 120 L 17.5 118 Z " /><path fill="rgb(202,23,4)" stroke="rgb(202,23,4)" stroke-width="1" opacity="0.9764705882352941" d="M 22.5 124 L 23.5 126 L 22.5 124 Z " /><path fill="rgb(202,23,4)" stroke="rgb(202,23,4)" stroke-width="1" opacity="0.9764705882352941" d="M 133.5 124 L 136 125.5 L 138 128.5 L 128.5 131 L 122 136.5 Q 120.8 143.8 125.5 145 L 133.5 145 L 143.5 140 L 148 146.5 L 32 175 L 35 161.5 L 37 158.5 L 37 153.5 L 39 145 L 114.5 129 L 119.5 127 L 128.5 126 L 133.5 124 Z M 114 134 L 110 135 L 111 141 L 112 142 L 104 137 L 97 140 L 100 152 L 106 151 L 105 148 L 106 144 L 114 149 L 119 148 L 117 138 Q 119 132 114 134 Z M 91 139 L 85 142 L 88 154 L 95 153 L 92 142 Q 93 138 91 139 Z M 74 143 L 63 146 L 65 160 L 75 158 L 81 155 L 83 152 L 82 146 Q 80 142 74 143 Z M 51 148 L 45 150 L 41 165 L 47 164 L 48 161 L 52 160 L 56 161 L 62 160 L 55 151 Q 55 148 51 148 Z " /><path fill="rgb(202,23,4)" stroke="rgb(202,23,4)" stroke-width="1" opacity="0.9764705882352941" d="M 29.5 126 L 30.5 128 L 29.5 126 Z " /><path fill="rgb(202,23,4)" stroke="rgb(202,23,4)" stroke-width="1" opacity="0.9764705882352941" d="M 26.5 129 L 28.5 132 L 26.5 129 Z " /><path fill="rgb(202,23,4)" stroke="rgb(202,23,4)" stroke-width="1" opacity="0.9764705882352941" d="M 138.5 133 L 140 133.5 L 133 136 Q 131.3 140.5 136.5 139 L 136.5 140 L 129 141 L 128 137.5 L 130.5 134 Q 136.8 135.8 138.5 133 Z " /><path fill="rgb(202,23,4)" stroke="rgb(202,23,4)" stroke-width="1" opacity="0.9764705882352941" d="M 31.5 135 L 33.5 138 L 31.5 135 Z " /><path fill="rgb(202,23,4)" stroke="rgb(202,23,4)" stroke-width="1" opacity="0.9764705882352941" d="M 36.5 141 L 38.5 144 L 36.5 141 Z " /><path fill="rgb(202,23,4)" stroke="rgb(202,23,4)" stroke-width="1" opacity="0.9764705882352941" d="M 72.5 147 L 76 148.5 Q 77 153 74.5 154 L 71.5 155 L 70 148 L 72.5 147 Z " /><path fill="rgb(202,23,4)" stroke="rgb(202,23,4)" stroke-width="1" opacity="0.9764705882352941" d="M 49 154 Q 51.7 152.9 51 155.5 L 51.5 157 Q 47.3 158.1 49 154 Z " /></svg>